<?xml version="1.0" encoding="UTF-8"?>
<svg version="1.1" xmlns="http://www.w3.org/2000/svg" width="192" height="61">
<path d="M0 0 C2.97487155 2.29490091 3.9959923 4.33803874 4.5234375 8.0546875 C4.61217442 13.75159775 4.23474961 17.31209502 0.1875 21.6875 C-3.47190629 23.80610364 -6.63137758 23.96624149 -10.8125 23.6875 C-11.4725 23.3575 -12.1325 23.0275 -12.8125 22.6875 C-12.8125 25.6575 -12.8125 28.6275 -12.8125 31.6875 C-15.7825 31.6875 -18.7525 31.6875 -21.8125 31.6875 C-21.8125 20.7975 -21.8125 9.9075 -21.8125 -1.3125 C-18.8425 -1.3125 -15.8725 -1.3125 -12.8125 -1.3125 C-8.18978622 -2.85340459 -4.37458534 -2.04147316 0 0 Z M-9.8125 5.6875 C-12.13761472 6.95102052 -12.13761472 6.95102052 -13.8125 8.6875 C-13.23797254 12.61825644 -13.23797254 12.61825644 -10.8125 15.6875 C-7.50566534 15.39766731 -7.50566534 15.39766731 -4.8125 13.6875 C-4.77169217 11.68791636 -4.76995644 9.68704746 -4.8125 7.6875 C-7.07851865 6.39707237 -7.07851865 6.39707237 -9.8125 5.6875 Z " fill="#060632" transform="translate(106.8125,5.3125)"/>
<path d="M0 0 C3.46755141 2.0537429 5.69790271 4.09370812 7 8 C7.41170006 14.38135087 6.84731094 17.58154705 2.67578125 22.58984375 C0.57496584 24.35766278 -0.78678536 24.51485473 -3.5 24.75 C-4.2734375 24.82734375 -5.046875 24.9046875 -5.84375 24.984375 C-8 25 -8 25 -11 24 C-11 26.97 -11 29.94 -11 33 C-13.64 33 -16.28 33 -19 33 C-19 22.11 -19 11.22 -19 0 C-16.36 0 -13.72 0 -11 0 C-7.13386684 -1.28871105 -3.87231402 -1.08132543 0 0 Z M-9.875 8.0625 C-11.52677204 10.90721851 -10.75730701 12.90192587 -10 16 C-7.65466049 16.76956136 -7.65466049 16.76956136 -5 17 C-2.98048938 16.06402685 -2.98048938 16.06402685 -2 14 C-2.23283149 10.85078091 -2.23283149 10.85078091 -3 8 C-6.53183097 6.88260127 -6.53183097 6.88260127 -9.875 8.0625 Z " fill="#060632" transform="translate(75,4)"/>
<path d="M0 0 C3.1981987 0.38979514 6.43829108 0.32421875 9.66015625 0.32421875 C9.66015625 8.24421875 9.66015625 16.16421875 9.66015625 24.32421875 C6.69015625 24.32421875 3.72015625 24.32421875 0.66015625 24.32421875 C0.00015625 24.65421875 -0.65984375 24.98421875 -1.33984375 25.32421875 C-6.06530213 25.45653158 -10.09312588 24.96841859 -13.83984375 21.94921875 C-17.31523517 18.30005776 -17.6996797 15.37291376 -17.6171875 10.38671875 C-17.14821895 6.89917802 -15.63388174 4.92010385 -13.33984375 2.32421875 C-8.79136499 -1.03299177 -5.33656247 -0.80699237 0 0 Z M-6.58984375 8.76171875 C-7.45609375 9.53515625 -7.45609375 9.53515625 -8.33984375 10.32421875 C-8.00984375 12.30421875 -7.67984375 14.28421875 -7.33984375 16.32421875 C-4.98616662 17.01204235 -4.98616662 17.01204235 -2.33984375 17.32421875 C-1.34984375 16.66421875 -0.35984375 16.00421875 0.66015625 15.32421875 C0.33015625 13.01421875 0.00015625 10.70421875 -0.33984375 8.32421875 C-3.19040978 7.20435352 -3.93107703 7.06306224 -6.58984375 8.76171875 Z " fill="#060633" transform="translate(43.33984375,3.67578125)"/>
<path d="M0 0 C2.97 0 5.94 0 9 0 C9 2.97 9 5.94 9 9 C9.66 8.67 10.32 8.34 11 8 C18.21726041 7.41796287 18.21726041 7.41796287 21.4375 9.8125 C24.3777958 13.92891411 24.12134226 17.83980298 24.0625 22.6875 C24.05798828 23.38939453 24.05347656 24.09128906 24.04882812 24.81445312 C24.03706927 26.54300538 24.01913454 28.27151365 24 30 C21.03 30 18.06 30 15 30 C14.95101562 29.07316406 14.90203125 28.14632812 14.8515625 27.19140625 C14.73941406 25.39509766 14.73941406 25.39509766 14.625 23.5625 C14.55539063 22.36753906 14.48578125 21.17257813 14.4140625 19.94140625 C14.27742188 18.97074219 14.14078125 18.00007813 14 17 C13.34 16.67 12.68 16.34 12 16 C11.34 16.33 10.68 16.66 10 17 C9.53045739 20.04581269 9.53045739 20.04581269 9.375 23.5625 C9.30023438 24.76003906 9.22546875 25.95757812 9.1484375 27.19140625 C9.09945312 28.11824219 9.05046875 29.04507813 9 30 C6.03 30 3.06 30 0 30 C0 20.1 0 10.2 0 0 Z " fill="#060632" transform="translate(29,31)"/>
<path d="M0 0 C2.64 0 5.28 0 8 0 C8.33 1.32 8.66 2.64 9 4 C10.051875 3.773125 11.10375 3.54625 12.1875 3.3125 C16.43857035 2.96405161 17.73215948 3.38572759 21 6 C23.10209857 9.15314785 23.2434761 9.86103081 23.1953125 13.44921875 C23.18886719 14.29677734 23.18242187 15.14433594 23.17578125 16.01757812 C23.15902344 16.89865234 23.14226563 17.77972656 23.125 18.6875 C23.11597656 19.58017578 23.10695313 20.47285156 23.09765625 21.39257812 C23.07409915 23.59516666 23.03822844 25.79761725 23 28 C20.03 28 17.06 28 14 28 C13.67 22.72 13.34 17.44 13 12 C12.01 12 11.02 12 10 12 C8.5192152 14.9615696 8.64685963 17.83506295 8.4375 21.125 C8.35371094 22.40632813 8.26992187 23.68765625 8.18359375 25.0078125 C8.12300781 25.99523437 8.06242188 26.98265625 8 28 C5.36 28 2.72 28 0 28 C0 18.76 0 9.52 0 0 Z " fill="#060633" transform="translate(0,0)"/>
<path d="M0 0 C3.3 0 6.6 0 10 0 C11.32 3.3 12.64 6.6 14 10 C15.32 6.7 16.64 3.4 18 0 C21.3 0 24.6 0 28 0 C25.35513141 7.42597718 22.37499869 14.56688456 18.875 21.625 C18.53855469 22.31142578 18.20210937 22.99785156 17.85546875 23.70507812 C14.61659028 30.12522655 14.61659028 30.12522655 12 32 C9.2971747 32.7361781 6.82209758 32.81792919 4 33 C3 32 3 32 2.9375 28.4375 C2.958125 27.303125 2.97875 26.16875 3 25 C4.98 24.67 6.96 24.34 9 24 C8.33992434 18.84512342 6.08410329 14.42136466 3.9375 9.75 C3.19508252 8.12048882 2.45411461 6.49031614 1.71484375 4.859375 C1.38605225 4.14233398 1.05726074 3.42529297 0.71850586 2.68652344 C0 1 0 1 0 0 Z " fill="#060632" transform="translate(112,4)"/>
<path d="M0 0 C6 0 6 0 8 1 C8.66 0.67 9.32 0.34 10 0 C17.03772453 -0.6922352 17.03772453 -0.6922352 20.7421875 1.97265625 C23.78252764 6.04923689 23.58113181 8.88207309 23.3125 13.8125 C23.28994141 14.60076172 23.26738281 15.38902344 23.24414062 16.20117188 C23.18554161 18.13493929 23.09586827 20.06772167 23 22 C20.36 22 17.72 22 15 22 C14.95101562 21.15695313 14.90203125 20.31390625 14.8515625 19.4453125 C14.73941406 17.80175781 14.73941406 17.80175781 14.625 16.125 C14.55539063 15.03445312 14.48578125 13.94390625 14.4140625 12.8203125 C14.26746509 9.86953526 14.26746509 9.86953526 12 8 C11.01 8.495 11.01 8.495 10 9 C9.53045739 12.04581269 9.53045739 12.04581269 9.375 15.5625 C9.30023438 16.76003906 9.22546875 17.95757812 9.1484375 19.19140625 C9.09945312 20.11824219 9.05046875 21.04507813 9 22 C6.03 22 3.06 22 0 22 C0 14.74 0 7.48 0 0 Z " fill="#060632" transform="translate(169,39)"/>
<path d="M0 0 C6.6 0 13.2 0 20 0 C19.10223293 4.48883537 18.28090451 6.57302472 15.9375 10.3125 C15.38964844 11.19550781 14.84179688 12.07851563 14.27734375 12.98828125 C13.85582031 13.65214844 13.43429688 14.31601562 13 15 C14.134375 15.144375 15.26875 15.28875 16.4375 15.4375 C20 16 20 16 21 17 C21 18.65 21 20.3 21 22 C14.07 22 7.14 22 0 22 C4.75 12.375 4.75 12.375 7 9 C4.69 8.67 2.38 8.34 0 8 C0 5.36 0 2.72 0 0 Z " fill="#070732" transform="translate(116,39)"/>
<path d="M0 0 C6 0 6 0 8 1 C9.99021521 0.90276549 9.99021521 0.90276549 12.125 0.5625 C13.40375 0.376875 14.6825 0.19125 16 0 C16 2.97 16 5.94 16 9 C14.02 9.33 12.04 9.66 10 10 C9.67 13.96 9.34 17.92 9 22 C6.03 22 3.06 22 0 22 C0 14.74 0 7.48 0 0 Z " fill="#060632" transform="translate(85,39)"/>
<path d="M0 0 C4.17611879 1.49452104 6.52115916 3.25856903 8.9375 7 C10 10 10 10 10 14 C7.03 14 4.06 14 1 14 C0.34 12.68 -0.32 11.36 -1 10 C-2.65 10 -4.3 10 -6 10 C-6.66 11.32 -7.32 12.64 -8 14 C-10.97 14 -13.94 14 -17 14 C-15.66071429 6.09821429 -15.66071429 6.09821429 -12 3.0625 C-7.60234232 0.03911034 -5.39412808 -0.44214165 0 0 Z " fill="#060632" transform="translate(156,38)"/>
<path d="M0 0 C2.64 0 5.28 0 8 0 C8.33 1.32 8.66 2.64 9 4 C11.87413125 4.33397787 11.87413125 4.33397787 15 4 C15.45375 3.34 15.9075 2.68 16.375 2 C18 0 18 0 19.95703125 -0.265625 C21.97324973 -0.25150088 23.98805302 -0.13193095 26 0 C25.25 6.625 25.25 6.625 23 10 C19.73134408 10.68105247 16.39376709 10.50929872 13.0625 10.5 C11.68288086 10.54253906 11.68288086 10.54253906 10.27539062 10.5859375 C7.74801351 10.59331132 5.47134035 10.53215098 3 10 C0.53322427 7.25559822 0.05582343 5.83735146 -0.1875 2.1875 C-0.125625 1.465625 -0.06375 0.74375 0 0 Z " fill="#060632" transform="translate(56,51)"/>
<path d="M0 0 C2.64 0 5.28 0 8 0 C9 1 9 1 9.11352539 3.04125977 C9.10828857 3.91580811 9.10305176 4.79035645 9.09765625 5.69140625 C9.09443359 6.63564453 9.09121094 7.57988281 9.08789062 8.55273438 C9.07951172 9.54595703 9.07113281 10.53917969 9.0625 11.5625 C9.05798828 12.55958984 9.05347656 13.55667969 9.04882812 14.58398438 C9.03700007 17.05604849 9.02051849 19.52799518 9 22 C6.03 22 3.06 22 0 22 C0 14.74 0 7.48 0 0 Z " fill="#070732" transform="translate(104,39)"/>
<path d="M0 0 C2.97 0 5.94 0 9 0 C9.04241723 2.33294775 9.04092937 4.66702567 9 7 C8 8 8 8 6.15234375 8.09765625 C4.1015625 8.06510417 2.05078125 8.03255208 0 8 C0 5.36 0 2.72 0 0 Z " fill="#070733" transform="translate(104,29)"/>
</svg>
