<?xml version="1.0" encoding="UTF-8"?>
<svg version="1.1" xmlns="http://www.w3.org/2000/svg" width="300" height="99">
<path d="M0 0 C-1.72497507 4.6029598 -3.9095871 8.93255824 -6.125 13.3125 C-6.49753906 14.05306641 -6.87007812 14.79363281 -7.25390625 15.55664062 C-8.16744806 17.37201217 -9.08347487 19.18613282 -10 21 C-13.35125149 20.38906389 -16.46770517 19.53914881 -19.6875 18.4375 C-24.86978877 16.83215942 -29.61514783 16.69065743 -35 17 C-35 17.66 -35 18.32 -35 19 C-34.38592285 19.235979 -33.7718457 19.47195801 -33.13916016 19.71508789 C-3.86991074 31.05726558 -3.86991074 31.05726558 1 41 C3.62761526 48.50747216 3.65025444 55.80530425 0.4375 63.1875 C-2.15194908 67.79820969 -5.72942598 70.95509614 -10 74 C-10.61101563 74.43699219 -11.22203125 74.87398438 -11.8515625 75.32421875 C-23.08979278 81.70448893 -39.43462976 78.34121241 -51.265625 75.265625 C-55.27446729 73.9069797 -58.40949781 72.21383296 -62 70 C-61.42770367 64.80771145 -58.9017839 60.6896297 -56.4375 56.1875 C-56.01275391 55.39923828 -55.58800781 54.61097656 -55.15039062 53.79882812 C-54.10603446 51.8626622 -53.0557923 49.92994633 -52 48 C-50.59070604 48.46350871 -49.18196004 48.9286836 -47.7734375 49.39453125 C-46.98888184 49.65339111 -46.20432617 49.91225098 -45.39599609 50.17895508 C-43.11452159 50.96075646 -40.87169118 51.81160703 -38.625 52.6875 C-33.45219186 54.44533923 -28.40339006 54.27269445 -23 54 C-23 52.68 -23 51.36 -23 50 C-24.19625 49.62875 -25.3925 49.2575 -26.625 48.875 C-40.51247417 44.20196367 -53.74021484 38.81235619 -61.375 25.625 C-63.21433871 17.8997774 -61.92735445 11.8341135 -58 5 C-54.04588398 -0.87468666 -48.61594535 -4.71824365 -41.77734375 -6.6171875 C-27.00479722 -8.65334722 -13.29043661 -6.9332771 0 0 Z " fill="#1ACF3B" transform="translate(62,7)"/>
<path d="M0 0 C7.86655006 5.7913252 11.99951981 12.88889222 13.91015625 22.40625 C15.03423215 31.64474877 13.56824261 39.26712426 8.14453125 46.88671875 C3.14644168 52.91787802 -1.65949844 55.92946823 -9.08984375 58.40625 C-17.81107195 59.21176308 -23.99616153 57.72651167 -31.08984375 52.40625 C-31.08984375 59.66625 -31.08984375 66.92625 -31.08984375 74.40625 C-37.02984375 74.40625 -42.96984375 74.40625 -49.08984375 74.40625 C-49.08984375 49.32625 -49.08984375 24.24625 -49.08984375 -1.59375 C-43.47984375 -1.59375 -37.86984375 -1.59375 -32.08984375 -1.59375 C-31.75984375 0.05625 -31.42984375 1.70625 -31.08984375 3.40625 C-30.45046875 2.808125 -29.81109375 2.21 -29.15234375 1.59375 C-20.41661731 -4.6460546 -9.45365582 -5.43536679 0 0 Z M-27.08984375 16.40625 C-30.94397942 20.51732805 -31.44674793 24.68446465 -31.3671875 30.12109375 C-30.9275215 33.74369393 -29.50776016 35.73381608 -27.08984375 38.40625 C-22.79392804 41.50330551 -19.35923655 41.82259453 -14.27734375 41.05859375 C-10.65209494 39.97749277 -8.71823162 38.10034757 -6.08984375 35.40625 C-4.12851376 31.48359002 -4.7424569 26.69275561 -5.08984375 22.40625 C-6.64546366 18.67276221 -8.52172137 16.3349648 -12.08984375 14.40625 C-18.12098444 13.02205377 -21.5450169 13.25330924 -27.08984375 16.40625 Z " fill="#0A5BF1" transform="translate(117.08984375,24.59375)"/>
<path d="M0 0 C2.375 2 2.375 2 3.375 3 C3.705 1.68 4.035 0.36 4.375 -1 C10.315 -1 16.255 -1 22.375 -1 C22.375 18.14 22.375 37.28 22.375 57 C16.435 57 10.495 57 4.375 57 C4.045 56.01 3.715 55.02 3.375 54 C2.3025 54.639375 1.23 55.27875 0.125 55.9375 C-5.23024159 59.13004787 -10.4800183 59.68070359 -16.625 59 C-25.20536965 56.73459461 -31.50055094 53.41893172 -36.48828125 45.9609375 C-41.39690185 37.49314526 -42.1630998 27.65594376 -39.96875 18.16015625 C-37.05332359 10.00450219 -32.19094002 4.06819793 -24.5 0.0625 C-17.0245176 -3.46029123 -7.25497572 -4.83079497 0 0 Z M-17.625 17 C-21.54225234 21.22650911 -23.00454719 23.99990467 -22.8984375 29.8359375 C-22.43288278 33.5204706 -21.0906455 36.23526733 -18.625 39 C-13.93314696 41.94390779 -10.06248487 42.47476341 -4.70703125 41.64453125 C-0.64728121 40.3877606 1.29588106 37.49021187 3.6875 34.1875 C4.76339091 30.76421074 4.93052327 27.51605583 4.375 24 C2.33972975 20.14752417 0.23928089 17.09775248 -3.625 15 C-9.24932013 13.51433053 -12.57741188 14.14287465 -17.625 17 Z " fill="#0B5DF0" transform="translate(175.625,24)"/>
<path d="M0 0 C4.21523265 3.89487497 6.79660765 8.50317105 8.75 13.875 C8.75 14.865 8.75 15.855 8.75 16.875 C5.83178537 17.01010253 2.91982348 17.1091305 0 17.1875 C-0.825 17.22939453 -1.65 17.27128906 -2.5 17.31445312 C-4.84906974 17.3618134 -6.94592887 17.34208686 -9.25 16.875 C-11.6875 14.44140625 -11.6875 14.44140625 -13.25 11.875 C-16.97134608 9.60084406 -20.13375601 9.66796172 -24.31640625 10.32421875 C-27.26284741 11.16350805 -29.11108171 12.73608171 -31.25 14.875 C-33.33908513 19.05317025 -32.68748035 24.32398918 -32.25 28.875 C-30.47264772 32.16639311 -29.13557542 33.33381502 -26 35.25 C-22.20612016 36.11224542 -18.97113681 36.07027425 -15.25 34.875 C-12.31026719 32.52081624 -12.31026719 32.52081624 -10.25 29.875 C-9.25 28.875 -9.25 28.875 -7.48413086 28.76147461 C-6.73526611 28.76671143 -5.98640137 28.77194824 -5.21484375 28.77734375 C-4.40595703 28.78056641 -3.59707031 28.78378906 -2.76367188 28.78710938 C-1.91353516 28.79548828 -1.06339844 28.80386719 -0.1875 28.8125 C0.66650391 28.81701172 1.52050781 28.82152344 2.40039062 28.82617188 C4.51695663 28.83799627 6.63348685 28.85593231 8.75 28.875 C7.58664794 37.50829687 3.45097166 42.94662187 -3.22265625 48.40234375 C-9.91896997 53.26652539 -17.49700931 54.31386828 -25.60546875 53.6953125 C-34.10605108 52.22087521 -41.82009412 47.46294267 -47.0703125 40.640625 C-52.08469893 33.13564928 -53.20330837 24.01940387 -51.6875 15.1875 C-49.63049157 7.58071043 -44.68583864 1.29175201 -38.25 -3.125 C-25.04866734 -10.14192457 -11.84099894 -9.40184185 0 0 Z " fill="#0B5DF0" transform="translate(291.25,29.125)"/>
<path d="M0 0 C0 6.27 0 12.54 0 19 C-2.5390625 19.45572917 -5.078125 19.91145833 -7.6171875 20.3671875 C-10.16505988 20.83044703 -10.16505988 20.83044703 -12 23 C-13.70140481 30.79197012 -13.11762587 39.20383721 -13.0625 47.125 C-13.05798828 48.36765625 -13.05347656 49.6103125 -13.04882812 50.890625 C-13.03714936 53.9271045 -13.01921798 56.96355886 -13 60 C-19.27 60 -25.54 60 -32 60 C-32 40.86 -32 21.72 -32 2 C-26.06 2 -20.12 2 -14 2 C-14 3.32 -14 4.64 -14 6 C-13.0925 5.195625 -12.185 4.39125 -11.25 3.5625 C-7.38065756 0.34713093 -5.05989189 0 0 0 Z " fill="#0C5FF0" transform="translate(239,21)"/>
<path d="M0 0 C1.40929396 0.46350871 2.81803996 0.9286836 4.2265625 1.39453125 C5.01111816 1.65339111 5.79567383 1.91225098 6.60400391 2.17895508 C8.88547841 2.96075646 11.12830882 3.81160703 13.375 4.6875 C18.54780814 6.44533923 23.59660994 6.27269445 29 6 C29.33 4.68 29.66 3.36 30 2 C42.3046579 10.61020727 42.3046579 10.61020727 43.40625 15.98046875 C43.60740063 20.44768895 42.96024586 23.65778693 40 27 C34.59035826 29.8392005 30.18889518 30.51508182 24.125 30.4375 C23.30290039 30.43137695 22.48080078 30.42525391 21.63378906 30.41894531 C15.8589979 30.27507355 10.37451593 29.55428099 4.75 28.25 C4.07211426 28.09329834 3.39422852 27.93659668 2.69580078 27.77514648 C-2.08231568 26.53393052 -5.83901408 24.56558199 -10 22 C-9.42770367 16.80771145 -6.9017839 12.6896297 -4.4375 8.1875 C-4.01275391 7.39923828 -3.58800781 6.61097656 -3.15039062 5.79882812 C-2.10603446 3.8626622 -1.0557923 1.92994633 0 0 Z " fill="#0A5AF1" transform="translate(10,55)"/>
<path d="M0 0 C1.23012817 0.00809692 1.23012817 0.00809692 2.48510742 0.01635742 C12.37080582 0.25991392 21.03502232 2.85851688 29.8125 7.4375 C28.08752493 12.0404598 25.9029129 16.37005824 23.6875 20.75 C23.31496094 21.49056641 22.94242188 22.23113281 22.55859375 22.99414062 C21.64505194 24.80951217 20.72902513 26.62363282 19.8125 28.4375 C16.46124851 27.82656389 13.34479483 26.97664881 10.125 25.875 C4.94271123 24.26965942 0.19735217 24.12815743 -5.1875 24.4375 C-5.1875 25.4275 -5.1875 26.4175 -5.1875 27.4375 C-11.79688982 25.37206568 -18.67704532 20.43452674 -22.1875 14.4375 C-22.72320179 10.62062477 -22.84631048 8.46868163 -20.75 5.1875 C-14.4688334 0.89792281 -7.46093202 -0.09532509 0 0 Z " fill="#0857F2" transform="translate(32.1875,-0.4375)"/>
<path d="M0 0 C0.66 0.33 1.32 0.66 2 1 C1.87625 2.010625 1.7525 3.02125 1.625 4.0625 C2.12319191 9.29351507 4.36380284 11.42974424 8 15 C8.66 15.66 9.32 16.32 10 17 C5.66864226 16.26873181 4.02972338 14.28341261 1.328125 10.98828125 C-0.61976401 8.07217682 -1.30182124 5.42107591 -2 2 C-1.34 1.34 -0.68 0.68 0 0 Z " fill="#27B649" transform="translate(9,6)"/>
</svg>
