<?xml version="1.0" encoding="UTF-8"?>
<svg version="1.1" xmlns="http://www.w3.org/2000/svg" width="170" height="45">
<path d="M0 0 C3.18559535 1.53609495 6.25043419 3.23200691 9.3125 5 C10.13556641 5.4640625 10.95863281 5.928125 11.80664062 6.40625 C17.81297619 9.81297619 17.81297619 9.81297619 19 11 C19.08685603 12.56172745 19.10702219 14.12729344 19.09765625 15.69140625 C19.09443359 16.63564453 19.09121094 17.57988281 19.08789062 18.55273438 C19.07532227 20.04256836 19.07532227 20.04256836 19.0625 21.5625 C19.05798828 22.55958984 19.05347656 23.55667969 19.04882812 24.58398438 C19.03700007 27.05604849 19.02051849 29.52799518 19 32 C15.93967541 33.62912132 12.87636963 35.252557 9.8125 36.875 C8.94818359 37.33519531 8.08386719 37.79539063 7.19335938 38.26953125 C5.93168945 38.93662109 5.93168945 38.93662109 4.64453125 39.6171875 C3.87471924 40.02565918 3.10490723 40.43413086 2.31176758 40.85498047 C1.54888428 41.23283691 0.78600098 41.61069336 0 42 C-0.81597656 42.42925781 -1.63195312 42.85851563 -2.47265625 43.30078125 C-5 44 -5 44 -7.49536133 43.12548828 C-8.77576294 42.35567627 -8.77576294 42.35567627 -10.08203125 41.5703125 C-11.01337891 41.02246094 -11.94472656 40.47460938 -12.90429688 39.91015625 C-13.86400391 39.32105469 -14.82371094 38.73195312 -15.8125 38.125 C-16.79154297 37.54363281 -17.77058594 36.96226563 -18.77929688 36.36328125 C-21.19593314 34.92508796 -23.59929024 33.46462399 -26 32 C-26 24.74 -26 17.48 -26 10 C-22.80225306 8.12514837 -19.5939453 6.27529839 -16.375 4.4375 C-15.47136719 3.90447266 -14.56773438 3.37144531 -13.63671875 2.82226562 C-5.10372581 -2.00479243 -5.10372581 -2.00479243 0 0 Z M-5 9 C-4.34 9.33 -3.68 9.66 -3 10 C-2.52652226 13.35315381 -2.65835303 15.86788172 -4 19 C-8.05076519 22.2545066 -12.3822215 24.64294199 -17 27 C-13.51395236 29.72156351 -10.18937292 31.50379538 -6 33 C-3.65518954 32.81627212 -3.65518954 32.81627212 -2 32 C-2.66 32 -3.32 32 -4 32 C-4 28.7 -4 25.4 -4 22 C-3.13375 21.7525 -2.2675 21.505 -1.375 21.25 C2.18302254 19.93221387 4.9226155 18.19813178 8 16 C5.20145256 12.70759125 1.79326725 10.96437054 -2 9 C-2.99 9 -3.98 9 -5 9 Z " fill="#44BC9A" transform="translate(26,1)"/>
<path d="M0 0 C3.33772367 1.30606578 4.64993784 2.54129786 6.8125 5.375 C8.61193912 10.86802469 8.2295472 16.26982185 8 22 C6.88625 21.979375 5.7725 21.95875 4.625 21.9375 C1.16784079 21.73619282 1.16784079 21.73619282 -1 23 C-5.8955438 23.1346515 -9.14712481 22.69296109 -13 19.5625 C-16.16460376 15.50785143 -16.43076775 13.16921294 -16 8 C-11.93538335 0.57156268 -8.04820692 -0.89267084 0 0 Z M-8.875 6.0625 C-10.66235303 9.14071911 -10.43386742 11.52906068 -10 15 C-8.5 17.16666667 -8.5 17.16666667 -6 18 C-2.87319901 18.00674926 -2.87319901 18.00674926 0 17 C2.31282587 13.53076119 2.42478586 12.07794425 2 8 C1 6 1 6 -1 5 C-4.11811483 4.61023565 -6.11019567 4.49577755 -8.875 6.0625 Z " fill="#666866" transform="translate(99,14)"/>
<path d="M0 0 C3.13180809 1.62390049 5.24339744 3.00266026 7.375 5.8125 C8.58825516 10.05889305 8.54873781 13.6586409 6.875 17.75 C4.42019611 20.69576467 2.65419449 21.78193517 -1 23 C-5.7791171 23.28657845 -9.03188715 22.66557758 -13 19.9375 C-15.50598534 16.25683403 -16.2955892 13.43383794 -16 9 C-14.78733279 5.42936876 -13.66679851 3.57154158 -10.8125 1.125 C-7.13710961 -0.34515615 -3.86754897 -0.6887416 0 0 Z M-8.875 6.125 C-10.55468045 8.92446741 -10.45742277 10.79804064 -10 14 C-8.52006844 16.56338689 -8.52006844 16.56338689 -6 18 C-2.3014996 17.85205998 -0.64194427 17.64194427 2 15 C2.4640446 10.33771115 2.4640446 10.33771115 0.875 6.0625 C-2.42559389 4.19216346 -5.61523517 4.1691411 -8.875 6.125 Z " fill="#676867" transform="translate(144,14)"/>
<path d="M0 0 C2.4375 1.25 2.4375 1.25 4 3 C4 4.32 4 5.64 4 7 C0.80097361 7.08886184 -1.92677456 6.91058531 -5 6 C-2.35603236 8.64396764 0.57503819 9.56774324 4 11 C5 12 5 12 5.375 15.3125 C5 19 5 19 2.875 21.4375 C-0.49913085 23.27126677 -2.21426249 23.55208672 -6 23 C-8.8125 21.8125 -8.8125 21.8125 -11 20 C-11.8125 17.3125 -11.8125 17.3125 -12 15 C-10.02 15 -8.04 15 -6 15 C-5.67 15.66 -5.34 16.32 -5 17 C-3.35 17 -1.7 17 0 17 C-2.13352119 13.79971821 -2.62750211 13.5096091 -6.0625 12.375 C-9.92370572 11.07629428 -9.92370572 11.07629428 -11 10 C-11.58139535 3.72093023 -11.58139535 3.72093023 -9.4375 1.0625 C-6.08557799 -0.39859421 -3.62061933 -0.3879235 0 0 Z " fill="#676767" transform="translate(165,14)"/>
<path d="M0 0 C1.98 0 3.96 0 6 0 C7.65 3.63 9.3 7.26 11 11 C13.14799887 8.1360015 14.42041356 6.38754738 15.6875 3.25 C16.120625 2.1775 16.55375 1.105 17 0 C18.98 0 20.96 0 23 0 C20.66062389 7.66795502 17.45231194 14.77137274 14 22 C12.35 22 10.7 22 9 22 C7.49394598 18.71106997 5.99619468 15.41842554 4.5 12.125 C4.07074219 11.18785156 3.64148438 10.25070313 3.19921875 9.28515625 C2.79316406 8.38925781 2.38710937 7.49335938 1.96875 6.5703125 C1.59169922 5.74289551 1.21464844 4.91547852 0.82617188 4.06298828 C0 2 0 2 0 0 Z " fill="#666766" transform="translate(106,14)"/>
<path d="M0 0 C1.65 0 3.3 0 5 0 C5 2.31 5 4.62 5 7 C6.98 7 8.96 7 11 7 C11 8.65 11 10.3 11 12 C9.02 12 7.04 12 5 12 C5.08746284 13.43861294 5.19565348 14.87597508 5.3125 16.3125 C5.37050781 17.11300781 5.42851563 17.91351562 5.48828125 18.73828125 C6.09064532 21.40063848 6.89641191 22.31193548 9 24 C9.66 24.33 10.32 24.66 11 25 C11 26.65 11 28.3 11 30 C7.4544614 29.75263684 5.2935405 29.19455591 2.3125 27.21875 C-1.23351629 22.28307868 -0.53703271 17.5978918 -0.3125 11.6875 C-0.28994141 10.56537109 -0.26738281 9.44324219 -0.24414062 8.28710938 C-0.18533776 5.52337464 -0.10320401 2.76237446 0 0 Z " fill="#676867" transform="translate(58,7)"/>
<path d="M0 0 C0 1.65 0 3.3 0 5 C-0.64453125 5.17273438 -1.2890625 5.34546875 -1.953125 5.5234375 C-4.40445882 6.92982628 -4.40445882 6.92982628 -4.609375 10.4765625 C-4.67581781 11.858573 -4.7219252 13.2416781 -4.75 14.625 C-4.77964844 15.33140625 -4.80929688 16.0378125 -4.83984375 16.765625 C-4.91055357 18.50980047 -4.95754035 20.25490827 -5 22 C-6.98 22 -8.96 22 -11 22 C-11.0814222 19.77144426 -11.13938079 17.54202345 -11.1875 15.3125 C-11.22230469 14.07113281 -11.25710937 12.82976563 -11.29296875 11.55078125 C-10.90809432 6.88610313 -9.44193208 4.3489042 -6.0625 1.1875 C-4 0 -4 0 0 0 Z " fill="#666766" transform="translate(82,14)"/>
</svg>
