<?xml version="1.0" encoding="UTF-8"?>
<svg version="1.1" xmlns="http://www.w3.org/2000/svg" width="137" height="32">
<path d="M0 0 C1.23157837 0.00616333 1.23157837 0.00616333 2.48803711 0.01245117 C3.37942383 0.01438477 4.27081055 0.01631836 5.18920898 0.01831055 C6.1218457 0.03055664 7.05448242 0.04280273 8.01538086 0.05541992 C9.42013672 0.05638672 9.42013672 0.05638672 10.85327148 0.05737305 C17.81268862 0.10272768 17.81268862 0.10272768 18.95288086 1.24291992 C19.04014309 3.02363238 19.05987127 4.80775132 19.05053711 6.59057617 C19.04731445 7.67016602 19.0440918 8.74975586 19.04077148 9.86206055 C19.03239258 10.99836914 19.02401367 12.13467773 19.01538086 13.30541992 C19.01086914 14.4455957 19.00635742 15.58577148 19.00170898 16.76049805 C18.98987833 19.58802344 18.97339496 22.41544632 18.95288086 25.24291992 C15.7917231 23.87308489 14.96017166 23.25385613 12.95288086 20.24291992 C12.62288086 23.87291992 12.29288086 27.50291992 11.95288086 31.24291992 C7.95288086 29.24291992 7.95288086 29.24291992 6.67944336 27.65698242 C3.92708007 25.40278443 0.74203112 25.70776598 -2.67211914 25.61791992 C-9.94238941 25.34764965 -9.94238941 25.34764965 -11.04711914 24.24291992 C-11.14693128 21.56560612 -11.18591789 18.91987818 -11.17211914 16.24291992 C-11.17598633 15.49268555 -11.17985352 14.74245117 -11.18383789 13.96948242 C-11.17372967 8.36953046 -11.17372967 8.36953046 -10.04711914 7.24291992 C-8.0475355 7.20211209 -6.0466666 7.20037636 -4.04711914 7.24291992 C-4.08836914 6.45916992 -4.12961914 5.67541992 -4.17211914 4.86791992 C-4.0168659 1.60760191 -3.34700424 0.39716985 0 0 Z " fill="#000000" transform="translate(11.047119140625,-0.242919921875)"/>
<path d="M0 0 C2.31 0 4.62 0 7 0 C7.33 4.29 7.66 8.58 8 13 C8.99 11.68 9.98 10.36 11 9 C13.76142303 8.47200324 16.16365545 8.81401019 19 9 C18.360625 9.9075 17.72125 10.815 17.0625 11.75 C14.64007393 15.15346676 14.64007393 15.15346676 14 19 C15.60118397 21.05279996 17.26776336 23.05651499 19 25 C19 25.66 19 26.32 19 27 C13.62694301 27.35233161 13.62694301 27.35233161 11 27 C9 25 9 25 8 23 C7.67 24.32 7.34 25.64 7 27 C4.69 27 2.38 27 0 27 C0 18.09 0 9.18 0 0 Z " fill="#000000" transform="translate(114,2)"/>
<path d="M0 0 C3.05067422 1.99227704 4.59426669 3.33682874 5.47265625 6.9375 C5.7595293 10.82131981 5.20766662 12.67845169 3.0625 16 C-1.06850442 18.69779881 -4.19904818 18.90289148 -9 18 C-12.0625 16.5625 -12.0625 16.5625 -14 14 C-14.71196655 10.84616468 -14.6799044 8.15790307 -14 5 C-10.51121086 -0.51453767 -6.09967687 -1.34567916 0 0 Z M-6 5 C-6.66 5.66 -7.32 6.32 -8 7 C-7.67958603 9.60280568 -7.67958603 9.60280568 -7 12 C-5.10820797 12.6814823 -5.10820797 12.6814823 -3 13 C-2.34 12.34 -1.68 11.68 -1 11 C-1.32041397 8.39719432 -1.32041397 8.39719432 -2 6 C-3.89179203 5.3185177 -3.89179203 5.3185177 -6 5 Z " fill="#000000" transform="translate(98,11)"/>
<path d="M0 0 C1.98 0 3.96 0 6 0 C6.33 4.29 6.66 8.58 7 13 C7.99 12.67 8.98 12.34 10 12 C10.33 8.04 10.66 4.08 11 0 C12.98 0 14.96 0 17 0 C17 5.94 17 11.88 17 18 C3.68834259 18.36637589 3.68834259 18.36637589 1.0625 16.96875 C-0.6088262 13.87188086 -0.3120385 10.73251883 -0.1875 7.3125 C-0.17396484 6.61060547 -0.16042969 5.90871094 -0.14648438 5.18554688 C-0.11120182 3.45670171 -0.05739583 1.72825235 0 0 Z " fill="#000000" transform="translate(51,11)"/>
<path d="M0 0 C2.31 0 4.62 0 7 0 C7 1.32 7 2.64 7 4 C8.32 4 9.64 4 11 4 C11 5.65 11 7.3 11 9 C9.68 9 8.36 9 7 9 C7 11.64 7 14.28 7 17 C7.99 17 8.98 17 10 17 C10 18.65 10 20.3 10 22 C3.64631422 22.47952345 3.64631422 22.47952345 1.0625 20.5625 C-0.52203208 16.74098146 -0.23546395 13.08137509 0 9 C-0.66 9 -1.32 9 -2 9 C-2 7.35 -2 5.7 -2 4 C-1.34 4 -0.68 4 0 4 C0 2.68 0 1.36 0 0 Z " fill="#000000" transform="translate(73,7)"/>
<path d="M0 0 C1.98 0 3.96 0 6 0 C6 1.32 6 2.64 6 4 C7.32 4 8.64 4 10 4 C10 5.65 10 7.3 10 9 C8.68 9 7.36 9 6 9 C6.33 11.31 6.66 13.62 7 16 C7.99 16.33 8.98 16.66 10 17 C10 18.65 10 20.3 10 22 C8.72125 22.061875 7.4425 22.12375 6.125 22.1875 C5.04605469 22.23970703 5.04605469 22.23970703 3.9453125 22.29296875 C3.30335937 22.19628906 2.66140625 22.09960938 2 22 C-0.20914 18.68629 -0.22481553 17.6553979 -0.125 13.8125 C-0.10695312 12.91144531 -0.08890625 12.01039062 -0.0703125 11.08203125 C-0.04710937 10.39496094 -0.02390625 9.70789062 0 9 C-0.99 9 -1.98 9 -3 9 C-3 7.35 -3 5.7 -3 4 C-2.01 4 -1.02 4 0 4 C0 2.68 0 1.36 0 0 Z " fill="#000000" transform="translate(40,7)"/>
<path d="M0 0 C1.98 0 3.96 0 6 0 C6 8.91 6 17.82 6 27 C4.02 27 2.04 27 0 27 C0 18.09 0 9.18 0 0 Z " fill="#000000" transform="translate(105,2)"/>
</svg>
