<?xml version="1.0" encoding="UTF-8"?>
<svg version="1.1" xmlns="http://www.w3.org/2000/svg" width="582" height="262">
<path d="M0 0 C3.65429416 3.007416 6.88193474 6.36545255 10.09375 9.8359375 C14.7015621 14.08701576 19.05922033 15.6672283 25.20703125 15.51171875 C28.6201482 14.85912617 30.97366407 13.16881058 33.69140625 11.06640625 C35.515625 10.0703125 35.515625 10.0703125 37.74609375 10.41796875 C38.33003906 10.63324219 38.91398438 10.84851563 39.515625 11.0703125 C40.2348161 19.41292926 38.30919049 26.60443703 34.515625 34.0703125 C32.961646 35.56192445 31.35574235 37.00128695 29.703125 38.3828125 C26.05578225 42.00615957 25.24144412 44.65413894 25.078125 49.6484375 C25.09928772 52.92538455 25.20526628 56.19225047 25.32324219 59.46704102 C25.94543017 77.49320959 20.5678711 92.77899486 8.80078125 106.72265625 C-4.4004154 120.28491127 -21.37605188 125.91496376 -39.984375 126.4453125 C-59.47124944 125.8899245 -76.51941353 119.57798853 -90.234375 105.4453125 C-104.98374522 88.16295563 -107.10168639 66.88235579 -105.484375 45.0703125 C-103.41061774 27.52258177 -93.70588134 11.24810436 -80.16796875 0.17578125 C-77.99835067 -1.35731203 -75.82200029 -2.66912506 -73.484375 -3.9296875 C-72.66710937 -4.37828125 -71.84984375 -4.826875 -71.0078125 -5.2890625 C-48.95417625 -16.34840811 -20.0056534 -14.5324086 0 0 Z " fill="#5674B9" transform="translate(420.484375,56.9296875)"/>
<path d="M0 0 C8.25 0 16.5 0 25 0 C25 43.89 25 87.78 25 133 C9 133 9 133 4.25 128.5 C3.18812392 126.92818344 2.12846515 125.35393782 1.12353516 123.74511719 C-0.48097991 121.25292386 -2.27790338 118.92512876 -4.07666016 116.57104492 C-5.61351141 114.55818897 -7.12655896 112.5290374 -8.63671875 110.49609375 C-12.34102458 105.52787478 -16.10936686 100.60929209 -19.875 95.6875 C-25.53898521 88.27785343 -31.13205631 80.82239343 -36.60498047 73.27026367 C-42.87040429 64.68108647 -49.46123423 56.40698456 -56 48 C-56.33 76.05 -56.66 104.1 -57 133 C-65.25 133 -73.5 133 -82 133 C-82 89.44 -82 45.88 -82 1 C-61 1 -61 1 -55.4375 6 C-54.31475311 7.69703689 -53.19396292 9.397006 -52.14990234 11.14355469 C-50.51881999 13.77683498 -48.6451332 16.19584509 -46.76196289 18.65234375 C-45.22147826 20.66221228 -43.7106775 22.69190547 -42.203125 24.7265625 C-38.86672211 29.20197282 -35.4390751 33.6032675 -32 38 C-25.55305424 46.25237295 -19.26214553 54.60606024 -13 63 C-9.04 68.28 -5.08 73.56 -1 79 C-0.67 52.93 -0.34 26.86 0 0 Z " fill="#7CA2A3" transform="translate(554,47)"/>
<path d="M0 0 C0.53625 0.4846875 1.0725 0.969375 1.625 1.46875 C1.04389329 4.89629467 -0.06053624 6.51413661 -2.53515625 8.921875 C-3.16357422 9.540625 -3.79199219 10.159375 -4.43945312 10.796875 C-5.09880859 11.43109375 -5.75816406 12.0653125 -6.4375 12.71875 C-7.10072266 13.3684375 -7.76394531 14.018125 -8.44726562 14.6875 C-10.08329317 16.2882176 -11.72590912 17.88151193 -13.375 19.46875 C-16.58322217 18.28734386 -18.64821842 17.25245208 -21.375 15.09375 C-30.62723754 8.37391368 -42.30618763 7.30610947 -53.375 8.46875 C-64.17901409 10.74462516 -74.2039111 16.08654216 -80.375 25.46875 C-87.73353981 38.93896593 -89.55108415 52.78902866 -85.3515625 67.68359375 C-83.84738488 71.97350832 -81.89930894 75.69687797 -79.375 79.46875 C-78.99085938 80.08363281 -78.60671875 80.69851562 -78.2109375 81.33203125 C-73.44037427 87.93179817 -64.61630778 92.0317512 -56.91015625 94.14453125 C-43.57741533 95.84964296 -30.96854145 94.7478426 -19.8125 86.71875 C-19.04808594 86.10515625 -18.28367187 85.4915625 -17.49609375 84.859375 C-15.375 83.46875 -15.375 83.46875 -11.375 83.46875 C-8.46415785 85.53885321 -6.06447599 88.17683636 -3.5625 90.71875 C-2.50385742 91.74162109 -2.50385742 91.74162109 -1.42382812 92.78515625 C-0.76189453 93.44902344 -0.09996094 94.11289063 0.58203125 94.796875 C1.19022705 95.4043457 1.79842285 96.01181641 2.42504883 96.63769531 C3.625 98.46875 3.625 98.46875 3.46118164 100.56176758 C0.39823489 107.54707475 -11.00338717 112.69981236 -17.6484375 115.4765625 C-37.92196863 122.85403658 -59.5819541 122.26049071 -79.375 113.46875 C-94.86117831 105.31812984 -105.09666216 92.11581549 -110.375 75.46875 C-115.80083611 54.01419999 -114.33337557 31.94542152 -103.375 12.46875 C-100.9976932 8.7992142 -98.39996021 5.62043896 -95.375 2.46875 C-94.63636719 1.69015625 -93.89773437 0.9115625 -93.13671875 0.109375 C-67.45236715 -24.94442787 -26.20623293 -22.41322553 0 0 Z " fill="#7DA3A4" transform="translate(304.375,62.53125)"/>
<path d="M0 0 C9.57 0 19.14 0 29 0 C29.67160156 1.81886719 30.34320312 3.63773438 31.03515625 5.51171875 C32.04337873 8.23730973 33.05296613 10.96239451 34.0625 13.6875 C34.33323334 14.41888184 34.60396667 15.15026367 34.88290405 15.90380859 C38.94126177 26.86010716 43.05163284 37.79623787 47.19543648 48.72046852 C47.98364826 50.79886494 48.7712233 52.87750148 49.55857849 54.95622253 C50.08584482 56.34817548 50.61311228 57.74012799 51.14038086 59.13208008 C51.40187392 59.8224533 51.66336699 60.51282652 51.93278408 61.22412014 C53.51778266 65.40724944 55.1074008 69.58859041 56.70001793 73.76882458 C57.70677547 76.41436029 58.7094548 79.06142844 59.71111298 81.70889854 C60.41245838 83.55861253 61.11893076 85.40637995 61.82550049 87.25410461 C62.24442566 88.36327744 62.66335083 89.47245026 63.0949707 90.61523438 C63.46435257 91.58666382 63.83373444 92.55809326 64.21430969 93.55895996 C65 96 65 96 65 99 C65.66 99 66.32 99 67 99 C67.15927979 97.75355713 67.15927979 97.75355713 67.32177734 96.48193359 C68.08653096 92.55575792 69.38499372 88.99174635 70.8515625 85.2890625 C71.14252808 84.54009705 71.43349365 83.79113159 71.73327637 83.01947021 C72.36307418 81.39962892 72.99538537 79.78076304 73.62994385 78.16278076 C75.33825994 73.80590935 77.02756999 69.44167015 78.71875 65.078125 C79.06994904 64.17327362 79.42114807 63.26842224 79.7829895 62.33615112 C84.2824863 50.72411281 88.63043211 39.05543414 92.98681641 27.38916016 C95.59985829 20.39229205 98.2145353 13.39602537 100.8671875 6.4140625 C101.2576123 5.38490723 101.64803711 4.35575195 102.05029297 3.29541016 C103 1 103 1 104 0 C106.07262076 -0.08767112 108.14820294 -0.10695873 110.22265625 -0.09765625 C111.48271484 -0.09443359 112.74277344 -0.09121094 114.04101562 -0.08789062 C115.38151109 -0.07953403 116.72200588 -0.07106907 118.0625 -0.0625 C119.40689942 -0.0574866 120.7513006 -0.05292342 122.09570312 -0.04882812 C125.39717941 -0.03699488 128.69856803 -0.02050971 132 0 C129.85149124 7.92925984 126.88822612 15.38075299 123.6875 22.9375 C122.60453035 25.51935813 121.52643616 28.10323729 120.44921875 30.6875 C120.16891815 31.35921738 119.88861755 32.03093475 119.599823 32.7230072 C116.32211871 40.59662674 113.15843344 48.51545427 110 56.4375 C109.70647644 57.17314178 109.41295288 57.90878357 109.11053467 58.66671753 C107.35259318 63.07277907 105.5968105 67.47969774 103.84173584 71.88690186 C97.53820935 87.71130839 91.21368735 103.52731264 84.8125 119.3125 C84.34239502 120.47652344 83.87229004 121.64054687 83.38793945 122.83984375 C82.95698975 123.89945312 82.52604004 124.9590625 82.08203125 126.05078125 C81.70280518 126.98575439 81.3235791 127.92072754 80.93286133 128.8840332 C80 131 80 131 79 132 C77.07332493 132.08748207 75.14348139 132.10697334 73.21484375 132.09765625 C72.04501953 132.09443359 70.87519531 132.09121094 69.66992188 132.08789062 C68.43822266 132.07951172 67.20652344 132.07113281 65.9375 132.0625 C64.08415039 132.05573242 64.08415039 132.05573242 62.19335938 132.04882812 C59.12885883 132.03699608 56.06445279 132.02051173 53 132 C49.38361624 124.24179149 46.08592426 116.39583041 42.9375 108.4375 C42.43162855 107.16507716 41.9254297 105.89278445 41.41894531 104.62060547 C40.57472876 102.49992436 39.7307636 100.37914564 38.88772583 98.25799561 C35.12117701 88.78179811 31.32898374 79.31585496 27.53994751 69.84863281 C26.25033957 66.62584861 24.96136321 63.40281255 23.67260742 60.1796875 C19.89698337 50.73734515 16.12008647 41.29553088 12.33282471 31.85784912 C10.82521965 28.10084133 9.31876567 24.34337248 7.81237793 20.58587646 C7.10702883 18.82752861 6.40106059 17.06942898 5.69445801 15.31158447 C4.72708458 12.90494108 3.76174988 10.49748971 2.796875 8.08984375 C2.51042114 7.37887039 2.22396729 6.66789703 1.92883301 5.93537903 C0 1.11386435 0 1.11386435 0 0 Z " fill="#7DA3A4" transform="translate(1,48)"/>
<path d="M0 0 C2.24847119 3.37270678 2.32839482 5.10467112 1.8203125 9.05859375 C0.50095179 13.78944428 -1.7974819 18.01348459 -4.11669922 22.3269043 C-6.85208475 27.39466423 -6.85208475 27.39466423 -8 33 C-6.65873157 36.26750881 -6.65873157 36.26750881 -5 39 C-1.06924356 38.42547254 -1.06924356 38.42547254 2 36 C2.45601306 34.01308597 2.91196218 32.02615716 3.3671875 30.0390625 C4.27965362 27.0988939 5.87862611 25.18766682 8 23 C11.69782533 21.15108733 15.96339864 21.53198825 20 22 C22.6875 23.6875 22.6875 23.6875 24 26 C24.0625 28.5 24.0625 28.5 23 31 C19.37007256 34.73669001 15.92448733 35.8412971 11 37 C12.88756401 39.55376307 14.12411867 40.03341657 17.25 40.875 C22.21094907 41.04036497 25.74887328 39.71810131 29.69921875 36.703125 C31.48056519 34.37079152 31.2389624 32.89226179 31.0625 30 C30.79055441 25.31416838 30.79055441 25.31416838 33 22 C33.99 22 34.98 22 36 22 C36.09796875 22.81984375 36.1959375 23.6396875 36.296875 24.484375 C36.44640625 25.56203125 36.5959375 26.6396875 36.75 27.75 C36.95882812 29.35101563 36.95882812 29.35101563 37.171875 30.984375 C38.1097748 34.39974598 39.31916918 35.75507663 42 38 C43.66169042 36.4595774 43.66169042 36.4595774 45 34 C45 32.68 45 31.36 45 30 C45 26 45 26 46.5 23.5 C46.995 23.005 47.49 22.51 48 22 C49.485 22.495 49.485 22.495 51 23 C51 26.96 51 30.92 51 35 C52.98 35.33 54.96 35.66 57 36 C57.11214844 35.11248047 57.11214844 35.11248047 57.2265625 34.20703125 C57.94764003 29.87349668 58.66913717 27.40530696 61.5 23.9375 C65.00530054 21.45098139 68.51817744 21.35025172 72.71484375 21.578125 C75 22 75 22 77.6875 23.6875 C79 26 79 26 79.0625 28.5 C77.63451249 31.85997062 76.08300589 33.05636585 73 35 C70.67445049 35.85222001 68.41975587 36.43064568 66 37 C67.88756401 39.55376307 69.12411867 40.03341657 72.25 40.875 C76.63434446 41.02114482 79.11145052 39.94427474 83 38 C83.99 37.67 84.98 37.34 86 37 C85.67 36.01 85.34 35.02 85 34 C84.33900376 22.08935618 84.24270677 10.75917536 92 1 C94.76250036 -0.38125018 96.94731099 -0.19079306 100 0 C102.47475878 2.47475878 102.3512777 3.32139556 102.4375 6.75 C102.2944015 15.10475109 99.48246646 23.34672489 94.796875 30.2421875 C92.64407263 32.8587761 92.64407263 32.8587761 93.5 35.8125 C94.80805132 38.07098863 94.80805132 38.07098863 96.8125 39 C100.23192683 39 101.46310122 38.3366173 104 36 C104.64651678 33.47427446 105.01559339 30.95964359 105.40625 28.3828125 C106 26 106 26 108.5 23.4375 C112.34278911 21.22789626 114.50414287 20.63299125 119 21 C120.69140625 22.515625 120.69140625 22.515625 122 24 C121.36191406 24.12117188 120.72382813 24.24234375 120.06640625 24.3671875 C119.24011719 24.53476563 118.41382813 24.70234375 117.5625 24.875 C116.73878906 25.03742188 115.91507813 25.19984375 115.06640625 25.3671875 C114.38449219 25.57601562 113.70257813 25.78484375 113 26 C111.40434262 29.19131475 111.48986361 32.53532367 112 36 C113.55797882 38.14782671 113.55797882 38.14782671 116 39 C118.66761764 39.25124826 118.66761764 39.25124826 121 39 C121.33 38.01 121.66 37.02 122 36 C121.67 35.401875 121.34 34.80375 121 34.1875 C119.62924074 31.18896412 120.28475852 29.14706251 121 26 C122.65 26.33 124.3 26.66 126 27 C126.99 31.455 126.99 31.455 128 36 C130.31 36 132.62 36 135 36 C135.07516846 35.16021606 135.07516846 35.16021606 135.15185547 34.3034668 C135.38413587 31.76392044 135.62941785 29.22579309 135.875 26.6875 C135.95363281 25.80642578 136.03226563 24.92535156 136.11328125 24.01757812 C136.19707031 23.17001953 136.28085937 22.32246094 136.3671875 21.44921875 C136.44050293 20.66893311 136.51381836 19.88864746 136.58935547 19.0847168 C137 17 137 17 139 14 C139.99 14.33 140.98 14.66 142 15 C141.67 17.31 141.34 19.62 141 22 C142.175625 21.87625 143.35125 21.7525 144.5625 21.625 C149.12368674 21.60879685 151.28319163 23.28405555 154.5546875 26.296875 C157.61505796 29.90314938 158.36799883 33.36532478 159 38 C160.65 37.34 162.3 36.68 164 36 C164.33 32.7 164.66 29.4 165 26 C166.98 25.505 166.98 25.505 169 25 C170.90667768 26.90667768 170.84171814 30.1892267 171.3046875 32.7734375 C172.08222809 35.26331468 173.03232355 36.3333888 175 38 C175.18175781 37.26394531 175.36351562 36.52789062 175.55078125 35.76953125 C178.28711379 25.146948 178.28711379 25.146948 181 22 C182.32 22 183.64 22 185 22 C186.65 26.95 188.3 31.9 190 37 C191.1446875 34.1228125 191.1446875 34.1228125 192.3125 31.1875 C194.95535714 24.54464286 194.95535714 24.54464286 198 22 C199.859375 22.5234375 199.859375 22.5234375 202 24 C202.94554389 26.59732735 203.64830056 28.95187624 204.25 31.625 C204.42273438 32.33140625 204.59546875 33.0378125 204.7734375 33.765625 C205.19699243 35.5069064 205.60045497 37.2530531 206 39 C208.52399494 38.36088723 208.52399494 38.36088723 211 37 C211.81621485 34.76359502 211.81621485 34.76359502 211.9375 32.1875 C212.49767645 28.70027544 212.91924185 26.36949325 215.5 23.875 C220.12044067 21.39976393 223.86095863 21.0512539 229 22 C231.6875 23.6875 231.6875 23.6875 233 26 C232.93090907 28.83272808 232.53239033 30.34930071 230.734375 32.546875 C228.67215651 34.27467968 226.87824702 34.90662047 224.3125 35.6875 C223.50425781 35.93886719 222.69601562 36.19023437 221.86328125 36.44921875 C221.24839844 36.63097656 220.63351562 36.81273437 220 37 C222.13408095 39.3647924 222.99374481 39.99816024 226.1875 40.9375 C230.52619106 41.00862608 232.63094617 40.03707442 236.30078125 37.91015625 C238 37 238 37 240 37 C239.97679687 36.31292969 239.95359375 35.62585938 239.9296875 34.91796875 C239.91164063 34.01691406 239.89359375 33.11585938 239.875 32.1875 C239.85179687 31.29417969 239.82859375 30.40085938 239.8046875 29.48046875 C240 27 240 27 242 24 C243.32 24.33 244.64 24.66 246 25 C245.95875 26.051875 245.9175 27.10375 245.875 28.1875 C245.99210036 31.75906093 246.34719928 33.87804309 248 37 C248.66 37.33 249.32 37.66 250 38 C250.17015625 37.34773438 250.3403125 36.69546875 250.515625 36.0234375 C252.01038098 30.63277496 253.60206902 26.45246128 257 22 C258.84375 22.03125 258.84375 22.03125 261 23 C262.28251366 26.1913712 263.18456788 29.31441031 264.06640625 32.62890625 C265.0800418 36.52643211 265.0800418 36.52643211 267.90625 39.15625 C270.92573217 38.93091551 271.99699497 38.28724522 274 36 C274.44898251 32.6125957 274.44898251 32.6125957 274.1875 28.8125 C274.02148377 23.41632415 274.12908204 18.33437252 275 13 C273.96939453 13.03480469 273.96939453 13.03480469 272.91796875 13.0703125 C271.56638672 13.09738281 271.56638672 13.09738281 270.1875 13.125 C269.29417969 13.14820313 268.40085937 13.17140625 267.48046875 13.1953125 C265 13 265 13 262 11 C262 10.34 262 9.68 262 9 C271.41002278 8.81548975 271.41002278 8.81548975 276 10 C276.144375 9.05125 276.28875 8.1025 276.4375 7.125 C277 4 277 4 278 2 C278.66 2 279.32 2 280 2 C280 4.31 280 6.62 280 9 C285.28 8.01 290.56 7.02 296 6 C295 10 295 10 293.3984375 11.046875 C292.39683594 11.39492187 292.39683594 11.39492187 291.375 11.75 C290.72273438 11.99234375 290.07046875 12.2346875 289.3984375 12.484375 C286.23872115 13.16366255 283.22097992 13.07798983 280 13 C280.08212997 16.14680313 280.19484302 19.29184074 280.3125 22.4375 C280.33505859 23.31599609 280.35761719 24.19449219 280.38085938 25.09960938 C280.64460914 31.59744438 281.12021596 39.12021596 285.9375 43.9375 C286.618125 44.288125 287.29875 44.63875 288 45 C288.7425 45.391875 289.485 45.78375 290.25 46.1875 C291.11625 46.5896875 291.11625 46.5896875 292 47 C292 47.66 292 48.32 292 49 C288.89951072 50.55024464 286.42105782 50.28992015 283 50 C278.69967441 47.45889851 276.95655658 44.53097312 275 40 C274.48050781 40.37253906 273.96101563 40.74507812 273.42578125 41.12890625 C267.74370853 44.98347314 267.74370853 44.98347314 264.1875 45.0625 C260.66834621 43.35319673 259.51100387 41.36581679 258.15234375 37.734375 C257.39681949 35.4994288 256.6805313 33.25878473 256 31 C255.73445313 31.68707031 255.46890625 32.37414062 255.1953125 33.08203125 C254.84210938 33.98308594 254.48890625 34.88414062 254.125 35.8125 C253.77695312 36.70582031 253.42890625 37.59914062 253.0703125 38.51953125 C252 41 252 41 250 44 C247.5625 44.375 247.5625 44.375 245 44 C243.1875 42.625 243.1875 42.625 242 41 C242 40.34 242 39.68 242 39 C241.39414062 39.42152344 240.78828125 39.84304687 240.1640625 40.27734375 C234.21725658 44.16563993 229.2141337 46.54286959 222 46 C219.21678656 45.32696839 217.51037602 44.49554316 215 43 C214.67 42.01 214.34 41.02 214 40 C213.0925 40.639375 212.185 41.27875 211.25 41.9375 C206.70880361 44.81941309 206.70880361 44.81941309 204 45 C201.9921875 44.328125 201.9921875 44.328125 200 43 C198.953125 40.6171875 198.953125 40.6171875 198.25 37.875 C198.00765625 36.96492188 197.7653125 36.05484375 197.515625 35.1171875 C197.34546875 34.41851562 197.1753125 33.71984375 197 33 C195.41028035 35.38457948 194.13258407 37.6304124 192.875 40.1875 C192.52179688 40.90292969 192.16859375 41.61835938 191.8046875 42.35546875 C191.53914062 42.89816406 191.27359375 43.44085938 191 44 C189.35 44 187.7 44 186 44 C181.40774487 35.738041 181.40774487 35.738041 182 31 C181.34 31 180.68 31 180 31 C179.89042969 31.60328125 179.78085937 32.2065625 179.66796875 32.828125 C177.95018331 41.48688089 177.95018331 41.48688089 175 44 C172.5 44.4375 172.5 44.4375 170 44 C168.1875 42.625 168.1875 42.625 167 41 C167 40.34 167 39.68 167 39 C165.99839844 39.45632812 164.99679687 39.91265625 163.96484375 40.3828125 C162.62287391 40.96464558 161.28039844 41.5453134 159.9375 42.125 C159.28072266 42.42792969 158.62394531 42.73085937 157.94726562 43.04296875 C154.174363 44.64134129 152.36170525 45.06009872 148.19140625 44.3671875 C145.376934 43.16147723 143.84290589 42.38493704 142 40 C142.03480469 41.10859375 142.06960938 42.2171875 142.10546875 43.359375 C142.13361349 44.82290148 142.16091292 46.28644439 142.1875 47.75 C142.21263672 48.47960937 142.23777344 49.20921875 142.26367188 49.9609375 C142.30825953 53.23069901 142.21328109 55.59482885 140.67578125 58.515625 C139 60 139 60 136 60 C135.67 53.4 135.34 46.8 135 40 C126.26558425 39.60677955 126.26558425 39.60677955 121 44 C116.84309474 45.13370143 114.76738635 45.30990603 110.75 43.6875 C108.80931116 42.49662275 106.8945297 41.2630198 105 40 C104.175 40.66 103.35 41.32 102.5 42 C98.5218269 44.63330607 95.70598109 44.5975849 91 44 C88 42 88 42 86 40 C85.53851563 40.34933594 85.07703125 40.69867188 84.6015625 41.05859375 C79.29436029 44.76104904 74.53790034 46.55773557 68 46 C65.06050363 45.04430167 62.48948959 43.83949231 60 42 C59.67 41.34 59.34 40.68 59 40 C57.4221875 40.0309375 57.4221875 40.0309375 55.8125 40.0625 C52.67295096 40.01103198 50.03116604 39.73482813 47 39 C46.484375 39.825 45.96875 40.65 45.4375 41.5 C43 44 43 44 39.5 44.5625 C35.57371632 43.93149012 34.40514493 43.07858551 32 40 C31.46632813 40.34933594 30.93265625 40.69867188 30.3828125 41.05859375 C24.71327646 44.52113047 19.71889282 46.41206157 13 46 C9.15894701 44.57738778 6.17558744 42.56489755 3 40 C2.319375 40.66 1.63875 41.32 0.9375 42 C-2.76272533 44.51930235 -4.6031656 44.7066341 -9 44 C-11.9375 41.5 -11.9375 41.5 -14 39 C-14.845625 39.825 -15.69125 40.65 -16.5625 41.5 C-19.19940217 43.69325276 -20.09205652 44.01404252 -23.6875 44.5625 C-27 44 -27 44 -28.9375 42.4375 C-30.88667589 37.96586119 -30.49126692 34.31866383 -28.8125 29.8125 C-26.24393473 25.82679527 -23.81864112 23.48497097 -19.1875 22.25 C-18.1046875 22.12625 -18.1046875 22.12625 -17 22 C-18.12047806 25.36143418 -19.49707183 26.57528834 -22 29 C-23.4783226 31.95664519 -23.06032783 34.74229737 -23 38 C-21.02 38 -19.04 38 -17 38 C-14.99518378 34.67952314 -14.83480781 32.34071831 -15 28.5 C-15.14043701 18.90347114 -14.05881839 10.27806646 -9 2 C-5.54970958 -0.30019361 -4.05445642 -0.43132515 0 0 Z M-3 3 C-7.9054306 8.2324593 -9.10019181 13.49168748 -9.125 20.5 C-9.08375 21.655 -9.0425 22.81 -9 24 C-4.52936199 19.21003071 -1.14849951 12.81855877 -0.890625 6.1875 C-0.92671875 5.465625 -0.9628125 4.74375 -1 4 C-1.66 3.67 -2.32 3.34 -3 3 Z M96 3 C91.05073866 8.71175258 89.87748221 17.29176396 89.6875 24.6875 C89.65216032 28.07720547 89.65216032 28.07720547 92 30 C96.16469033 21.20964217 99.3450381 13.83358589 99 4 C98.01 3.67 97.02 3.34 96 3 Z M11.875 25.6875 C9.83027036 28.20933322 9.35401103 29.81390075 9 33 C12.40080577 32.89592083 12.40080577 32.89592083 16 32 C17.99083177 29.5748212 17.99083177 29.5748212 19 27 C18.34 26.01 17.68 25.02 17 24 C13.93929931 23.68905893 13.93929931 23.68905893 11.875 25.6875 Z M66.25 26.1875 C63.58353663 28.92028631 63.58353663 28.92028631 64 33 C67.73487777 32.5020163 69.81237635 32.12508244 73 30 C73.25030977 27.41619823 73.25030977 27.41619823 73 25 C69.72350795 23.42242975 69.17962715 23.85711477 66.25 26.1875 Z M220.3125 26.25 C217.57093338 28.91139629 217.57093338 28.91139629 218 33 C222.18889483 32.53748023 222.18889483 32.53748023 225.9375 30.75 C227.27343587 28.95347851 227.27343587 28.95347851 226.6875 26.3125 C226.3471875 25.1678125 226.3471875 25.1678125 226 24 C222.79920905 23.67903167 222.79920905 23.67903167 220.3125 26.25 Z M141 26 C140.50063641 30.24459051 140.6017865 33.03311233 143.1875 36.4375 C145.71680013 39.21293278 145.71680013 39.21293278 148.75 39.4375 C150.96123766 39.22514289 150.96123766 39.22514289 152 38 C152.49936359 33.75540949 152.3982135 30.96688767 149.8125 27.5625 C147.28319987 24.78706722 147.28319987 24.78706722 144.25 24.5625 C142.03876234 24.77485711 142.03876234 24.77485711 141 26 Z " fill="#7DA3A4" transform="translate(283,201)"/>
<path d="M0 0 C8.25 0 16.5 0 25 0 C25 43.56 25 87.12 25 132 C16.75 132 8.5 132 0 132 C0 88.44 0 44.88 0 0 Z " fill="#7DA3A4" transform="translate(145,48)"/>
<path d="M0 0 C2.47475878 2.47475878 2.3512777 3.32139556 2.4375 6.75 C2.2944015 15.10475109 -0.51753354 23.34672489 -5.203125 30.2421875 C-7.35592737 32.8587761 -7.35592737 32.8587761 -6.5 35.8125 C-5.19194868 38.07098863 -5.19194868 38.07098863 -3.1875 39 C0.12882242 39 1.46496676 38.14502812 4 36 C4.84108611 34.03321784 5.46463257 32.04032765 6.1171875 30.00390625 C7.83521686 26.10413165 11.24733787 23.87633106 15 22 C16.49756871 21.90500497 17.99942932 21.87012802 19.5 21.875 C20.69109375 21.87113281 20.69109375 21.87113281 21.90625 21.8671875 C24 22 24 22 26 23 C26 23.66 26 24.32 26 25 C25.40832031 25.01417969 24.81664062 25.02835938 24.20703125 25.04296875 C20.00115984 25.29683048 17.53728324 25.63061777 14 28.0625 C11.39579153 31.88743119 11.23306587 34.41637126 11 39 C13.44480079 38.81171228 13.44480079 38.81171228 16 38 C17.15922128 36.26857146 17.15922128 36.26857146 18 34 C19.9375 30.75 19.9375 30.75 22 28 C22.99 28 23.98 28 25 28 C26.32 31.63 27.64 35.26 29 39 C33.86132495 38.50847518 33.86132495 38.50847518 36 36 C36.38710381 33.63269799 36.38710381 33.63269799 36.5 31 C36.77777778 26.22222222 36.77777778 26.22222222 39 24 C39.99 24 40.98 24 42 24 C42.62021955 26.92389215 43.09054844 29.7761295 43.4375 32.75 C43.623125 33.8225 43.80875 34.895 44 36 C44.99 36.495 44.99 36.495 46 37 C46.32613281 36.16855469 46.65226562 35.33710938 46.98828125 34.48046875 C47.42527344 33.39378906 47.86226562 32.30710938 48.3125 31.1875 C48.74175781 30.10855469 49.17101562 29.02960938 49.61328125 27.91796875 C51.69957496 23.52793663 51.69957496 23.52793663 54 22 C56.1875 22.3125 56.1875 22.3125 58 23 C58.41572266 24.46373047 58.41572266 24.46373047 58.83984375 25.95703125 C59.205694 27.24219751 59.57158136 28.52735321 59.9375 29.8125 C60.47697266 31.70935547 60.47697266 31.70935547 61.02734375 33.64453125 C61.64491261 35.77501982 62.29854631 37.89563892 63 40 C66.12848967 39.06990848 67.6867239 38.4337669 69.625 35.75 C70.58355976 33.83288049 71.49708197 31.89286287 72.375 29.9375 C74.49356848 26.10778005 77.10707122 23.94646439 81 22 C82.54023996 21.93049459 84.08334988 21.91547643 85.625 21.9375 C86.85089844 21.95103516 86.85089844 21.95103516 88.1015625 21.96484375 C88.72804688 21.97644531 89.35453125 21.98804688 90 22 C90.495 23.485 90.495 23.485 91 25 C89.948125 24.9175 88.89625 24.835 87.8125 24.75 C83.43112175 25.03730349 82.05154419 25.94845581 79 29 C77.5216774 31.95664519 77.93967217 34.74229737 78 38 C79.485 38.495 79.485 38.495 81 39 C83.60045875 36.6975881 84.84739183 34.50103323 86.1875 31.3125 C86.70376953 30.10013672 86.70376953 30.10013672 87.23046875 28.86328125 C87.48441406 28.24839844 87.73835938 27.63351563 88 27 C88.66 27 89.32 27 90 27 C91.59138085 31.17737474 92.21278058 34.53160785 92 39 C95.09413157 38.37734782 95.09413157 38.37734782 98 36 C98.89454365 32.90150823 99.31475569 29.91748987 99.67578125 26.71484375 C100 24 100 24 101 22 C101.99 22 102.98 22 104 22 C105.08676207 25.89423074 105.3850098 29.74101079 105.71875 33.7578125 C105.87795117 36.03291544 105.87795117 36.03291544 107 38 C110.10000819 36.93521458 110.97462191 36.04202519 112.703125 33.1796875 C113.21359375 32.08914062 113.7240625 30.99859375 114.25 29.875 C114.77078125 28.77929688 115.2915625 27.68359375 115.828125 26.5546875 C116.21484375 25.71164063 116.6015625 24.86859375 117 24 C117.99 24 118.98 24 120 24 C120.19335938 24.83144531 120.38671875 25.66289062 120.5859375 26.51953125 C120.84632813 27.60621094 121.10671875 28.69289062 121.375 29.8125 C121.63023437 30.89144531 121.88546875 31.97039062 122.1484375 33.08203125 C122.88732881 36.15533343 122.88732881 36.15533343 125 39 C128.2866174 38.05938559 129.69728341 37.4791745 131.5546875 34.5390625 C132.20824219 33.09660156 132.20824219 33.09660156 132.875 31.625 C135.63349622 26.26944628 137.29126754 24.03192172 143 22 C146.03595626 21.72356309 148.96377388 21.75214481 152 22 C152.33 22.99 152.66 23.98 153 25 C152.32453125 25.08636719 151.6490625 25.17273438 150.953125 25.26171875 C145.19187968 26.14925813 145.19187968 26.14925813 140.375 29.25 C138.79219032 32.41561935 138.67490197 34.50519616 139 38 C142.05081496 37.68276924 142.90666113 37.11098219 144.921875 34.71484375 C145.52515625 33.79832031 146.1284375 32.88179687 146.75 31.9375 C147.67039063 30.55884766 147.67039063 30.55884766 148.609375 29.15234375 C149.06828125 28.44207031 149.5271875 27.73179687 150 27 C150.99 27.33 151.98 27.66 153 28 C153.9163928 30.54996257 154.46197586 33.10837112 155.05859375 35.75 C155.77196356 38.14805316 155.77196356 38.14805316 157.91015625 38.9375 C160.3107179 39.21125607 160.3107179 39.21125607 163 37 C163.86126277 35.21633569 163.86126277 35.21633569 164.4375 33.1875 C165.95012448 28.84658286 167.79675809 25.35295026 171.83203125 22.875 C174.3065891 21.87625953 176.09384759 21.79687787 178.75 21.875 C179.54921875 21.89304688 180.3484375 21.91109375 181.171875 21.9296875 C181.77515625 21.95289063 182.3784375 21.97609375 183 22 C183.33 22.99 183.66 23.98 184 25 C183.09507812 25.02126953 183.09507812 25.02126953 182.171875 25.04296875 C178.04881182 25.28902252 175.68666363 25.43057162 172.4375 28.125 C170.68656777 31.62686446 170.69677727 34.13391023 171 38 C171.99 38.33 172.98 38.66 174 39 C176.60045875 36.6975881 177.84739183 34.50103323 179.1875 31.3125 C179.70376953 30.10013672 179.70376953 30.10013672 180.23046875 28.86328125 C180.48441406 28.24839844 180.73835937 27.63351563 181 27 C181.66 27 182.32 27 183 27 C184.59138085 31.17737474 185.21278058 34.53160785 185 39 C187.99795634 38.13082602 187.99795634 38.13082602 191 36 C191.9527728 33.95485559 191.9527728 33.95485559 192.5625 31.625 C193.84953247 27.16765027 194.94972507 24.61580256 199 22 C202.75040991 21.38409691 206.27924821 21.16484674 210 22 C212.5138937 24.52459112 213 25.44747589 213 29.0625 C212 32 212 32 209.9375 33.75 C206.32453029 35.28743392 202.83479017 36.15504623 199 37 C200.71830973 41.49321986 202.02328251 44.38715766 206.1875 47 C210.59838226 48.15695272 214.47579722 48.27699201 219 48 C219 48.66 219 49.32 219 50 C214.00264637 52.98884787 208.64272041 52.61268144 203 52 C198.52129344 49.84062362 195.81801812 47.07047061 193 43 C192.67 42.01 192.34 41.02 192 40 C189.4246953 40.80416982 189.4246953 40.80416982 187 43 C186.25210233 45.50458755 185.85942906 47.97390432 185.453125 50.5546875 C184.89201495 53.58274689 183.94135302 55.61064243 182 58 C177.77711887 60.55000531 173.81180983 60.6763932 169 60 C165.9375 58.4375 165.9375 58.4375 164 56 C163.24925864 51.49555181 163.69465521 49.52481136 166 45.5625 C166.66 44.716875 167.32 43.87125 168 43 C167.34 43 166.68 43 166 43 C165.34 42.34 164.68 41.68 164 41 C163.29875 41.495 162.5975 41.99 161.875 42.5 C158.50962644 44.25584708 156.73984509 44.63656938 153 44 C150.83392475 41.77538218 149.38311239 39.76622478 148 37 C147.21625 37.969375 146.4325 38.93875 145.625 39.9375 C144.08711295 41.83962346 143.20740087 42.89629957 141 44 C137.51044604 44.30343947 135.62494296 44.39470082 132.625 42.5 C131.820625 41.7575 131.820625 41.7575 131 41 C130.278125 41.495 129.55625 41.99 128.8125 42.5 C125.7706716 44.12230848 124.37391202 44.60557395 121 44 C118.4230235 41.8647909 116.86286526 39.79429788 115 37 C113.02 39.64 111.04 42.28 109 45 C102.47692308 44.50769231 102.47692308 44.50769231 100.0625 41.9375 C99.711875 41.298125 99.36125 40.65875 99 40 C95.71222932 41.54498492 94.2568637 42.28937708 92.99609375 45.77734375 C92.81175781 46.82019531 92.62742187 47.86304688 92.4375 48.9375 C91.59724957 53.61392828 90.70075707 55.93852918 87 59 C83.52837146 60.73581427 79.79560358 60.45809009 76 60 C72.9375 58.4375 72.9375 58.4375 71 56 C70.24925864 51.49555181 70.69465521 49.52481136 73 45.5625 C73.66 44.716875 74.32 43.87125 75 43 C74.34 43 73.68 43 73 43 C72.34 42.01 71.68 41.02 71 40 C70.278125 40.639375 69.55625 41.27875 68.8125 41.9375 C65.96763636 44.02373333 64.48380442 44.82134336 61 45 C58.875 44.5625 58.875 44.5625 57 43 C54.90512514 38.92663222 54 35.60182781 54 31 C53.34 31 52.68 31 52 31 C51.81824219 31.60328125 51.63648437 32.2065625 51.44921875 32.828125 C48.68156425 41.62784701 48.68156425 41.62784701 46 44 C43.5625 44.5 43.5625 44.5 41 44 C38.6875 42 38.6875 42 37 40 C36.319375 40.66 35.63875 41.32 34.9375 42 C31.28670848 44.48564529 29.33453498 44.64215333 25 44 C23.1875 42.1875 23.1875 42.1875 22 40 C21.34 39.01 20.68 38.02 20 37 C19.64808594 37.5053125 19.29617187 38.010625 18.93359375 38.53125 C14.89276615 43.8486837 14.89276615 43.8486837 10.3125 44.625 C7.02361863 44.00445634 5.89705096 43.67818959 4 41 C3.34 41.495 2.68 41.99 2 42.5 C-2.11751444 44.55875722 -4.41253398 44.50971845 -9 44 C-12.85141399 41.36482201 -13.79322955 38.39755335 -15 34 C-15.92312906 23.3303455 -15.7475365 12.4944389 -9.83203125 3.15625 C-6.93340157 -0.22079428 -4.2665191 -0.66368075 0 0 Z M-4 3 C-9.28526658 9.00598475 -9.852142 17.2886364 -10 25 C-9.71608472 26.67579265 -9.39677058 28.34728647 -9 30 C-2.93936402 22.65969894 -0.20464946 13.38513636 -1 4 C-1.99 3.67 -2.98 3.34 -4 3 Z M200.8125 25.6875 C198.83925733 28.20508548 198.3492558 29.85669777 198 33 C202.94415148 32.72423234 202.94415148 32.72423234 207 30.1875 C208.21255387 28.05273445 208.21255387 28.05273445 207.6875 25.75 C207.460625 25.1725 207.23375 24.595 207 24 C203.06739575 23.5927977 203.06739575 23.5927977 200.8125 25.6875 Z M76 47 C73.66608797 49.78114056 73.66608797 49.78114056 74.375 52.6875 C74.58125 53.450625 74.7875 54.21375 75 55 C77.75706416 55.86382428 77.75706416 55.86382428 81 56 C83.74716387 54.22960551 85.53145922 52.93708156 87 50 C87.04022391 47.6670134 87.04320247 45.33293334 87 43 C82.177854 42.43268871 79.75522591 44.07926873 76 47 Z M168 48 C166.69384054 50.51400388 166.69384054 50.51400388 167 53 C167.93597315 55.01951062 167.93597315 55.01951062 170 56 C173.84156267 56 175.50004323 55.44732974 178.375 52.875 C180.36368076 49.3565648 180.31215868 46.98002315 180 43 C174.86960094 42.22266681 171.54514071 44.52121219 168 48 Z " fill="#7DA3A4" transform="translate(15,201)"/>
<path d="M0 0 C4.79876079 2.3993804 7.6704397 5.16168244 10 10 C10.80310147 14.95792237 10.65187206 19.43062811 8.3125 23.9375 C4.76224612 28.63918757 4.76224612 28.63918757 1 30 C-4.11001789 30.69539999 -9.20752706 31.1971975 -13.5 27.9375 C-17.39857216 23.35667771 -19.34413382 19.48617802 -18.9375 13.4375 C-18.25259368 9.16047862 -16.90187164 6.29401645 -14 3 C-9.5190454 -0.05519632 -5.29614423 -0.94271367 0 0 Z M-9.875 8.0625 C-12.24240103 11.33508378 -13.0823279 12.96593313 -13 17 C-10.75278859 21.2420814 -10.75278859 21.2420814 -7 24 C-2.9869676 24.53507099 -1.46071967 24.33051628 1.875 21.9375 C4.25040832 19.11790495 4.25040832 19.11790495 4.5625 15.5 C3.89954133 11.37492386 3.14674823 9.74331897 0 7 C-4.41492119 5.5551167 -6.05089307 5.31911894 -9.875 8.0625 Z " fill="#5674B9" transform="translate(123,5)"/>
<path d="M0 0 C3.31070157 0.21700397 4.67366899 0.66609457 7.01953125 3.06640625 C8.6796875 5.37760417 10.33984375 7.68880208 12 10 C15.465 5.05 15.465 5.05 19 0 C21.475 0.495 21.475 0.495 24 1 C24 10.24 24 19.48 24 29 C22.35 29 20.7 29 19 29 C18.67 23.72 18.34 18.44 18 13 C16.02 15.97 16.02 15.97 14 19 C11.4375 19.6875 11.4375 19.6875 9 19 C7.34765625 16.45703125 7.34765625 16.45703125 6 14 C5.93941406 14.99902344 5.87882813 15.99804688 5.81640625 17.02734375 C5.73261719 18.31769531 5.64882812 19.60804687 5.5625 20.9375 C5.48128906 22.22527344 5.40007813 23.51304688 5.31640625 24.83984375 C5 28 5 28 4 29 C2.33382885 29.04063832 0.66611905 29.042721 -1 29 C-1.02465881 25.03069011 -1.04284023 21.06140966 -1.05493164 17.09204102 C-1.05997057 15.74079614 -1.06680177 14.38955674 -1.07543945 13.03833008 C-1.08752419 11.09979566 -1.09269828 9.161222 -1.09765625 7.22265625 C-1.10289307 6.05484619 -1.10812988 4.88703613 -1.11352539 3.68383789 C-1 1 -1 1 0 0 Z " fill="#5674B9" transform="translate(2,6)"/>
<path d="M0 0 C10.72783633 -0.6249225 10.72783633 -0.6249225 15.5625 1.75 C19.76633462 5.63046273 21.80974812 8.47916257 22.25 14.3125 C21.90522549 19.39792403 20.30903095 22.48643296 17 26.3125 C13.48501329 29.27827003 10.30138349 29.13566598 5.875 29.125 C4.79992187 29.12757812 3.72484375 29.13015625 2.6171875 29.1328125 C0 29 0 29 -1 28 C-1.09974389 26.09715013 -1.1308063 24.19061747 -1.1328125 22.28515625 C-1.13410156 21.12435547 -1.13539063 19.96355469 -1.13671875 18.76757812 C-1.13091797 16.93356445 -1.13091797 16.93356445 -1.125 15.0625 C-1.13080078 13.23428711 -1.13080078 13.23428711 -1.13671875 11.36914062 C-1.13542969 10.20705078 -1.13414062 9.04496094 -1.1328125 7.84765625 C-1.13168457 6.77523682 -1.13055664 5.70281738 -1.12939453 4.59790039 C-1 2 -1 2 0 0 Z M5 6 C5 11.61 5 17.22 5 23 C10.89611703 23.65736875 10.89611703 23.65736875 13.9375 20.4375 C15.92151462 17.73028005 16.00091244 16.94707837 16.0625 13.375 C14.90744986 9.7060172 14.17896089 8.14794655 11 6 C9.02 6 7.04 6 5 6 Z " fill="#5674B9" transform="translate(138,6)"/>
<path d="M0 0 C5.94 0 11.88 0 18 0 C18.33 1.32 18.66 2.64 19 4 C17 6 17 6 14.3984375 6.1953125 C13.40070312 6.17210937 12.40296875 6.14890625 11.375 6.125 C9.87066406 6.09792969 9.87066406 6.09792969 8.3359375 6.0703125 C7.56507812 6.04710937 6.79421875 6.02390625 6 6 C6 7.98 6 9.96 6 12 C9.63 12 13.26 12 17 12 C17 13.65 17 15.3 17 17 C14.59454362 18.20272819 13.05003047 18.10071472 10.375 18.0625 C9.14910156 18.04896484 9.14910156 18.04896484 7.8984375 18.03515625 C7.27195312 18.02355469 6.64546875 18.01195313 6 18 C6 19.65 6 21.3 6 23 C6.68707031 22.97679688 7.37414063 22.95359375 8.08203125 22.9296875 C9.43361328 22.90261719 9.43361328 22.90261719 10.8125 22.875 C11.70582031 22.85179688 12.59914063 22.82859375 13.51953125 22.8046875 C16 23 16 23 19 25 C18.67 26.32 18.34 27.64 18 29 C12.06 29 6.12 29 0 29 C0 19.43 0 9.86 0 0 Z " fill="#5674B9" transform="translate(31,6)"/>
<path d="M0 0 C1.65 0.33 3.3 0.66 5 1 C5 4.63 5 8.26 5 12 C7.31 12 9.62 12 12 12 C12 8.37 12 4.74 12 1 C13.65 0.67 15.3 0.34 17 0 C18 1 18 1 18.11352539 3.59204102 C18.10828857 4.71795654 18.10305176 5.84387207 18.09765625 7.00390625 C18.09443359 8.21884766 18.09121094 9.43378906 18.08789062 10.68554688 C18.07951172 11.96494141 18.07113281 13.24433594 18.0625 14.5625 C18.05798828 15.84576172 18.05347656 17.12902344 18.04882812 18.45117188 C18.03699545 21.63416022 18.02051068 24.81705762 18 28 C16.34385343 28.38218767 14.67542976 28.71395102 13 29 C12 28 12 28 11.90234375 25.71484375 C11.91394531 24.79832031 11.92554687 23.88179687 11.9375 22.9375 C11.94652344 22.01839844 11.95554687 21.09929688 11.96484375 20.15234375 C11.97644531 19.44207031 11.98804687 18.73179688 12 18 C9.69 18 7.38 18 5 18 C5 21.3 5 24.6 5 28 C3.34385343 28.38218767 1.67542976 28.71395102 0 29 C-1.80279191 27.19720809 -1.13036605 24.45952299 -1.1328125 22.03125 C-1.13410156 20.82082031 -1.13539062 19.61039063 -1.13671875 18.36328125 C-1.13285156 17.08839844 -1.12898438 15.81351563 -1.125 14.5 C-1.12886719 13.22511719 -1.13273437 11.95023438 -1.13671875 10.63671875 C-1.13542969 9.42628906 -1.13414063 8.21585938 -1.1328125 6.96875 C-1.13168457 5.84919922 -1.13055664 4.72964844 -1.12939453 3.57617188 C-1 1 -1 1 0 0 Z " fill="#5674B9" transform="translate(82,6)"/>
<path d="M0 0 C6.93 0 13.86 0 21 0 C21.33 1.32 21.66 2.64 22 4 C21.34 4.66 20.68 5.32 20 6 C17.69 6 15.38 6 13 6 C13 13.59 13 21.18 13 29 C11.35 29 9.7 29 8 29 C7 28 7 28 6.88647461 25.86694336 C6.89171143 24.95050049 6.89694824 24.03405762 6.90234375 23.08984375 C6.90556641 22.10048828 6.90878906 21.11113281 6.91210938 20.09179688 C6.92048828 19.05087891 6.92886719 18.00996094 6.9375 16.9375 C6.94201172 15.89271484 6.94652344 14.84792969 6.95117188 13.77148438 C6.96300087 11.1809334 6.97948311 8.59049441 7 6 C6.05125 6.020625 5.1025 6.04125 4.125 6.0625 C1 6 1 6 -1 5 C-0.67 3.35 -0.34 1.7 0 0 Z " fill="#5674B9" transform="translate(55,6)"/>
</svg>
